<svg width="33" height="33" viewBox="0 0 33 33" fill="none" xmlns="http://www.w3.org/2000/svg">
<path d="M25.9946 11.8153C24.3242 11.8153 22.7902 12.3895 21.5865 13.3466C20.5274 14.1399 19.3931 15.7773 17.6479 16.7991C17.7874 16.3074 17.9138 16.0127 17.9812 15.8572C18.9267 13.6759 20.9891 12.3876 21.9172 11.1951C22.8933 10.0143 23.4787 8.50963 23.4787 6.87105C23.4787 3.09309 20.3704 0.0285212 16.5256 0.00114192V0C16.517 0 16.5085 0.000761278 16.4996 0.000761278C16.4911 0.000761278 16.4826 0 16.4736 0V0.00114192C12.6288 0.0285212 9.52055 3.09309 9.52055 6.87105C9.52055 8.50963 10.1059 10.0143 11.082 11.1951C12.0101 12.3872 14.0721 13.6759 15.018 15.8572C15.0854 16.0123 15.2118 16.3074 15.3514 16.7991C13.6061 15.7769 12.4718 14.1395 11.4127 13.3466C10.209 12.3891 8.67507 11.8153 7.00464 11.8153C3.13578 11.8153 0 14.8917 0 18.6867C0 22.4818 3.13617 25.5582 7.00464 25.5582C8.67507 25.5582 10.209 24.984 11.4127 24.0268C12.5509 23.1743 13.7759 21.3471 15.753 20.3565V21.2824H15.7522L15.7565 21.6832C15.7565 26.599 13.063 29.7681 8.29167 32.3855V33H24.7083V32.3855C19.937 29.7681 17.2435 26.599 17.2435 21.6832L17.2478 21.2824H17.247V20.3565C19.2241 21.3471 20.4491 23.1743 21.5873 24.0268C22.791 24.9843 24.3249 25.5582 25.9954 25.5582C29.8642 25.5582 33 22.4818 33 18.6867C32.9992 14.8917 29.8631 11.8153 25.9946 11.8153Z" fill="#221E1F"/>
</svg>
