<svg width="183" height="75" viewBox="0 0 183 75" fill="none" xmlns="http://www.w3.org/2000/svg">
<path opacity="0.3" d="M176.028 6.7207H172.82H165.865C165.092 6.7207 164.483 7.32956 164.483 8.10233V8.54727H17.6331V8.10233C17.6331 7.32956 17.0243 6.7207 16.2515 6.7207H9.29654H6.08836C3.25486 6.7207 0.959961 9.01561 0.959961 11.8491V15.0573V22.0357C0.959961 22.8084 1.56881 23.4173 2.34159 23.4173H2.78652V49.1295C2.78652 49.7618 3.04411 50.3472 3.46562 50.7922L23.9792 71.3058C24.4242 71.7507 25.0096 71.9849 25.6419 71.9849H75.0993V73.1323C75.0993 73.9519 75.755 74.6076 76.5746 74.6076H105.542C106.361 74.6076 107.017 73.9519 107.017 73.1323V71.9849H156.475C157.107 71.9849 157.692 71.7273 158.137 71.3058L178.651 50.7922C179.096 50.3472 179.33 49.7618 179.33 49.1295V23.4173H179.775C180.548 23.4173 181.157 22.8084 181.157 22.0357V15.0807V11.8725C181.157 9.03902 178.862 6.7207 176.028 6.7207Z" fill="#1A1A1A"/>
<path d="M176.988 5.10498H5.10498V43.3455L25.6186 63.8591H156.475L176.988 43.3455V5.10498Z" fill="url(#paint0_linear_78_2284)"/>
<path opacity="0.3" d="M176.988 7.28279V5.10498H5.10498V7.28279V20.7478V43.3455L25.6186 63.8591H75.0995V65.0066C75.0995 65.8262 75.7551 66.4819 76.5748 66.4819H105.542C106.362 66.4819 107.017 65.8262 107.017 65.0066V63.8591H156.475L176.988 43.3455V20.7712V7.28279ZM154.133 58.239H106.994V58.0282C106.994 57.2086 106.338 56.5529 105.519 56.5529H76.5748C75.7551 56.5529 75.0995 57.2086 75.0995 58.0282V58.239H27.9603L10.7486 41.0272V12.4112H16.2516C17.0244 12.4112 17.6333 11.8023 17.6333 11.0296V10.7251H164.484V11.0296C164.484 11.8023 165.092 12.4112 165.865 12.4112H171.368V41.0038L154.133 58.239Z" fill="black"/>
<g opacity="0.3">
<mask id="mask0_78_2284" style="mask-type:luminance" maskUnits="userSpaceOnUse" x="5" y="5" width="172" height="59">
<path d="M176.988 5.10498H5.10498V43.3455L25.6186 63.8591H156.475L176.988 43.3455V5.10498Z" fill="white"/>
</mask>
<g mask="url(#mask0_78_2284)">
<path d="M2.45874 13.3245L60.4635 15.0339L2.45874 17.9377V13.3245Z" fill="#49312C"/>
</g>
<mask id="mask1_78_2284" style="mask-type:luminance" maskUnits="userSpaceOnUse" x="5" y="5" width="172" height="59">
<path d="M176.988 5.10498H5.10498V43.3455L25.6186 63.8591H156.475L176.988 43.3455V5.10498Z" fill="white"/>
</mask>
<g mask="url(#mask1_78_2284)">
<path d="M31.4497 23.9793L81.0242 21.0756L134.205 23.9793L80.5325 24.9394L31.4497 23.9793Z" fill="#49312C"/>
</g>
<mask id="mask2_78_2284" style="mask-type:luminance" maskUnits="userSpaceOnUse" x="5" y="5" width="172" height="59">
<path d="M176.988 5.10498H5.10498V43.3455L25.6186 63.8591H156.475L176.988 43.3455V5.10498Z" fill="white"/>
</mask>
<g mask="url(#mask2_78_2284)">
<path d="M21.3098 34.4938H58.0517L87.2999 36.7887L58.0517 38.2406L21.3098 34.4938Z" fill="#49312C"/>
</g>
<mask id="mask3_78_2284" style="mask-type:luminance" maskUnits="userSpaceOnUse" x="5" y="5" width="172" height="59">
<path d="M176.988 5.10498H5.10498V43.3455L25.6186 63.8591H156.475L176.988 43.3455V5.10498Z" fill="white"/>
</mask>
<g mask="url(#mask3_78_2284)">
<path d="M85.1221 46.6942H183.498V50.0663L106.643 48.3803L85.1221 46.6942Z" fill="#49312C"/>
</g>
<mask id="mask4_78_2284" style="mask-type:luminance" maskUnits="userSpaceOnUse" x="5" y="5" width="172" height="59">
<path d="M176.988 5.10498H5.10498V43.3455L25.6186 63.8591H156.475L176.988 43.3455V5.10498Z" fill="white"/>
</mask>
<g mask="url(#mask4_78_2284)">
<path d="M180.126 30.7469C179.4 30.7469 117.04 33.1589 117.04 33.1589L180.126 34.4937V30.7469Z" fill="#49312C"/>
</g>
<mask id="mask5_78_2284" style="mask-type:luminance" maskUnits="userSpaceOnUse" x="5" y="5" width="172" height="59">
<path d="M176.988 5.10498H5.10498V43.3455L25.6186 63.8591H156.475L176.988 43.3455V5.10498Z" fill="white"/>
</mask>
<g mask="url(#mask5_78_2284)">
<path d="M106.385 16.2281L138.794 13.8162L183.498 16.2281L138.794 17.4459L106.385 16.2281Z" fill="#49312C"/>
</g>
<mask id="mask6_78_2284" style="mask-type:luminance" maskUnits="userSpaceOnUse" x="5" y="5" width="172" height="59">
<path d="M176.988 5.10498H5.10498V43.3455L25.6186 63.8591H156.475L176.988 43.3455V5.10498Z" fill="white"/>
</mask>
<g mask="url(#mask6_78_2284)">
<path d="M9.69458 53.696L72.2892 54.6796L13.816 57.5599L9.69458 53.696Z" fill="#49312C"/>
</g>
</g>
<path d="M156.475 66.2009H25.6185C24.9863 66.2009 24.4008 65.9433 23.9559 65.5218L3.44229 45.0082C2.99736 44.5633 2.76318 43.9779 2.76318 43.3456V5.10504C2.76318 3.81709 3.81696 2.76331 5.10492 2.76331H176.965C178.253 2.76331 179.307 3.81709 179.307 5.10504V43.3456C179.307 43.9779 179.049 44.5633 178.628 45.0082L158.114 65.5218C157.692 65.9433 157.084 66.2009 156.475 66.2009ZM26.6021 61.5174H155.515L174.647 42.3855V7.44678H7.44666V42.362L26.6021 61.5174Z" fill="url(#paint1_linear_78_2284)"/>
<path d="M176.988 2.76323C178.276 2.76323 179.33 3.81701 179.33 5.10497V43.3455C179.33 43.9778 179.072 44.5632 178.651 45.0081L158.137 65.5218C157.692 65.9667 157.107 66.2008 156.475 66.2008H25.6185C24.9862 66.2008 24.4007 65.9433 23.9558 65.5218L3.44221 45.0081C2.99728 44.5632 2.76311 43.9778 2.76311 43.3455V5.10497C2.76311 3.81701 3.81689 2.76323 5.10485 2.76323H176.988ZM26.602 61.5174H155.515L174.647 42.3854V7.4467H7.44658V42.362L26.602 61.5174ZM176.988 1.82654H5.10485C3.30171 1.82654 1.82642 3.30183 1.82642 5.10497V43.3455C1.82642 44.212 2.17767 45.055 2.78653 45.6638L23.3001 66.1774C23.909 66.7863 24.752 67.1375 25.6185 67.1375H156.475C157.341 67.1375 158.184 66.7863 158.793 66.1774L179.307 45.6638C179.915 45.055 180.267 44.212 180.267 43.3455V5.10497C180.267 3.30183 178.791 1.82654 176.988 1.82654ZM8.38328 8.3834H173.686V41.9873L155.093 60.5807H26.9767L8.38328 41.9873V8.3834Z" fill="#333333"/>
<path d="M174.623 2.76331H7.44678V4.14492H174.623V2.76331Z" fill="url(#paint2_linear_78_2284)"/>
<path d="M9.27334 0.936646H6.06517C3.23167 0.936646 0.936768 3.23154 0.936768 6.06504V9.27322V16.2282C0.936768 17.001 1.54562 17.6098 2.31839 17.6098H7.89172C8.6645 17.6098 9.27334 17.001 9.27334 16.2282V10.6548C9.27334 9.88208 9.8822 9.27322 10.655 9.27322H16.2283C17.0011 9.27322 17.6099 8.66436 17.6099 7.89159V2.31826C17.6099 1.54549 17.0011 0.936646 16.2283 0.936646H9.27334Z" fill="url(#paint3_linear_78_2284)"/>
<path d="M105.519 68.8002H76.5749C75.7553 68.8002 75.0996 68.1445 75.0996 67.3249V60.3465C75.0996 59.5269 75.7553 58.8712 76.5749 58.8712H105.542C106.362 58.8712 107.017 59.5269 107.017 60.3465V67.3249C106.994 68.1445 106.338 68.8002 105.519 68.8002Z" fill="#666666"/>
<path d="M16.2282 0.936694C17.001 0.936694 17.6099 1.54554 17.6099 2.31831V7.89164C17.6099 8.66441 17.001 9.27327 16.2282 9.27327H10.6549C9.88212 9.27327 9.27327 9.88212 9.27327 10.6549V16.2282C9.27327 17.001 8.66442 17.6098 7.89165 17.6098H2.31832C1.54554 17.6098 0.936694 17.001 0.936694 16.2282V9.27327V6.06509C0.936694 3.23159 3.23159 0.936694 6.06509 0.936694H9.27327H16.2282ZM16.2282 0H9.27327H6.06509C2.71641 0 0 2.7164 0 6.06509V9.27327V16.2282C0 17.5162 1.03036 18.5465 2.31832 18.5465H7.89165C9.1796 18.5465 10.21 17.5162 10.21 16.2282V10.6549C10.21 10.3973 10.4207 10.21 10.6549 10.21H16.2282C17.5162 10.21 18.5465 9.17959 18.5465 7.89164V2.31831C18.57 1.05377 17.5162 0 16.2282 0Z" fill="#333333"/>
<path d="M105.519 58.8947C106.338 58.8947 106.994 59.5504 106.994 60.37V67.3484C106.994 68.168 106.338 68.8237 105.519 68.8237H76.5748C75.7552 68.8237 75.0995 68.168 75.0995 67.3484V60.37C75.0995 59.5504 75.7552 58.8947 76.5748 58.8947H105.519ZM105.519 57.958H76.5748C75.24 57.958 74.1628 59.0352 74.1628 60.37V67.3484C74.1628 68.6832 75.24 69.7603 76.5748 69.7603H105.542C106.877 69.7603 107.954 68.6832 107.954 67.3484V60.37C107.931 59.0352 106.853 57.958 105.519 57.958Z" fill="#333333"/>
<path opacity="0.3" d="M6.70472 16.2966C7.59179 15.4095 7.59178 13.9713 6.70472 13.0843C5.81766 12.1972 4.37946 12.1972 3.4924 13.0843C2.60534 13.9713 2.60533 15.4095 3.49239 16.2966C4.37945 17.1836 5.81766 17.1836 6.70472 16.2966Z" fill="black"/>
<path d="M5.10498 15.9473C6.35949 15.9473 7.37647 14.9303 7.37647 13.6758C7.37647 12.4213 6.35949 11.4043 5.10498 11.4043C3.85048 11.4043 2.8335 12.4213 2.8335 13.6758C2.8335 14.9303 3.85048 15.9473 5.10498 15.9473Z" fill="url(#paint4_linear_78_2284)"/>
<path d="M5.10531 11.3808C6.36985 11.3808 7.3768 12.3878 7.3768 13.6523C7.3768 14.9168 6.36985 15.9238 5.10531 15.9238C3.84077 15.9238 2.83383 14.9168 2.83383 13.6523C2.83383 12.4112 3.86419 11.3808 5.10531 11.3808ZM5.10531 10.9125C3.58318 10.9125 2.36548 12.1536 2.36548 13.6523C2.36548 15.1744 3.6066 16.3921 5.10531 16.3921C6.62744 16.3921 7.84514 15.151 7.84514 13.6523C7.84514 12.1536 6.62744 10.9125 5.10531 10.9125Z" fill="#333333"/>
<path opacity="0.3" d="M15.8393 6.59462C16.1263 5.37336 15.369 4.15065 14.1477 3.86362C12.9264 3.57659 11.7037 4.33393 11.4167 5.55519C11.1297 6.77645 11.887 7.99916 13.1083 8.2862C14.3295 8.57323 15.5522 7.81588 15.8393 6.59462Z" fill="black"/>
<path d="M13.6289 7.30626C14.8834 7.30626 15.9004 6.2893 15.9004 5.03479C15.9004 3.78029 14.8834 2.76331 13.6289 2.76331C12.3744 2.76331 11.3574 3.78029 11.3574 5.03479C11.3574 6.2893 12.3744 7.30626 13.6289 7.30626Z" fill="url(#paint5_linear_78_2284)"/>
<path d="M13.629 2.76327C14.8935 2.76327 15.9005 3.77022 15.9005 5.03476C15.9005 6.29929 14.8935 7.30623 13.629 7.30623C12.3645 7.30623 11.3575 6.29929 11.3575 5.03476C11.3575 3.79364 12.3879 2.76327 13.629 2.76327ZM13.629 2.29492C12.1069 2.29492 10.8892 3.53604 10.8892 5.03476C10.8892 6.53347 12.1303 7.77458 13.629 7.77458C15.1511 7.77458 16.3688 6.53347 16.3688 5.03476C16.3688 3.53604 15.1511 2.29492 13.629 2.29492Z" fill="#333333"/>
<path d="M172.82 0.936646H176.028C178.862 0.936646 181.157 3.23154 181.157 6.06504V9.27322V16.2282C181.157 17.001 180.548 17.6098 179.775 17.6098H174.202C173.429 17.6098 172.82 17.001 172.82 16.2282V10.6548C172.82 9.88208 172.211 9.27322 171.438 9.27322H165.865C165.092 9.27322 164.483 8.66436 164.483 7.89159V2.31826C164.483 1.54549 165.092 0.936646 165.865 0.936646H172.82Z" fill="url(#paint6_linear_78_2284)"/>
<path opacity="0.5" d="M16.2283 0.936646H9.27334H6.06517C3.23167 0.936646 0.936768 3.23154 0.936768 6.06504V7.28274C0.936768 4.44924 3.23167 2.15434 6.06517 2.15434H9.27334H16.2283C17.0011 2.15434 17.6099 2.76319 17.6099 3.53597V2.31826C17.6333 1.56891 17.0011 0.936646 16.2283 0.936646Z" fill="white"/>
<path opacity="0.5" d="M176.028 0.936646H172.82H165.865C165.092 0.936646 164.483 1.54549 164.483 2.31826V3.53597C164.483 2.76319 165.092 2.15434 165.865 2.15434H172.82H176.028C178.862 2.15434 181.157 4.44924 181.157 7.28274V6.06504C181.157 3.23154 178.862 0.936646 176.028 0.936646Z" fill="white"/>
<path d="M176.029 0.936694C178.862 0.936694 181.157 3.23159 181.157 6.06509V9.27327V16.2282C181.157 17.001 180.548 17.6098 179.775 17.6098H174.202C173.429 17.6098 172.82 17.001 172.82 16.2282V10.6549C172.82 9.88212 172.212 9.27327 171.439 9.27327H165.865C165.093 9.27327 164.484 8.66441 164.484 7.89164V2.31831C164.484 1.54554 165.093 0.936694 165.865 0.936694H172.82H176.029ZM176.029 0H172.82H165.865C164.577 0 163.547 1.03036 163.547 2.31831V7.89164C163.547 9.17959 164.577 10.21 165.865 10.21H171.439C171.696 10.21 171.884 10.4207 171.884 10.6549V16.2282C171.884 17.5162 172.914 18.5465 174.202 18.5465H179.775C181.063 18.5465 182.094 17.5162 182.094 16.2282V9.27327V6.06509C182.094 2.73982 179.377 0 176.029 0Z" fill="#333333"/>
<path opacity="0.3" d="M178.583 16.2872C179.47 15.4001 179.47 13.9619 178.583 13.0749C177.696 12.1878 176.257 12.1878 175.37 13.0749C174.483 13.9619 174.483 15.4001 175.37 16.2872C176.257 17.1742 177.696 17.1743 178.583 16.2872Z" fill="black"/>
<path d="M176.989 15.9473C178.243 15.9473 179.26 14.9303 179.26 13.6758C179.26 12.4213 178.243 11.4043 176.989 11.4043C175.734 11.4043 174.717 12.4213 174.717 13.6758C174.717 14.9303 175.734 15.9473 176.989 15.9473Z" fill="url(#paint7_linear_78_2284)"/>
<path d="M176.988 11.3808C178.253 11.3808 179.26 12.3878 179.26 13.6523C179.26 14.9168 178.253 15.9238 176.988 15.9238C175.724 15.9238 174.717 14.9168 174.717 13.6523C174.717 12.4112 175.724 11.3808 176.988 11.3808ZM176.988 10.9125C175.466 10.9125 174.249 12.1536 174.249 13.6523C174.249 15.1744 175.49 16.3921 176.988 16.3921C178.51 16.3921 179.728 15.151 179.728 13.6523C179.728 12.1536 178.487 10.9125 176.988 10.9125Z" fill="#333333"/>
<path opacity="0.3" d="M168.987 8.27982C170.209 7.99279 170.966 6.77007 170.679 5.54881C170.392 4.32755 169.169 3.57021 167.948 3.85724C166.727 4.14427 165.969 5.36698 166.256 6.58825C166.543 7.80951 167.766 8.56685 168.987 8.27982Z" fill="black"/>
<path d="M168.464 7.30626C169.719 7.30626 170.736 6.2893 170.736 5.03479C170.736 3.78029 169.719 2.76331 168.464 2.76331C167.21 2.76331 166.193 3.78029 166.193 5.03479C166.193 6.2893 167.21 7.30626 168.464 7.30626Z" fill="url(#paint8_linear_78_2284)"/>
<path d="M168.464 2.76327C169.729 2.76327 170.736 3.77022 170.736 5.03476C170.736 6.29929 169.729 7.30623 168.464 7.30623C167.2 7.30623 166.193 6.29929 166.193 5.03476C166.193 3.79364 167.2 2.76327 168.464 2.76327ZM168.464 2.29492C166.942 2.29492 165.725 3.53604 165.725 5.03476C165.725 6.53347 166.966 7.77458 168.464 7.77458C169.987 7.77458 171.204 6.53347 171.204 5.03476C171.204 3.53604 169.963 2.29492 168.464 2.29492Z" fill="#333333"/>
<path opacity="0.3" d="M80.2439 66.92C81.404 66.4428 81.9577 65.1155 81.4804 63.9553C81.0032 62.7951 79.6759 62.2415 78.5157 62.7187C77.3555 63.1959 76.8019 64.5233 77.2791 65.6834C77.7563 66.8436 79.0837 67.3972 80.2439 66.92Z" fill="black"/>
<path d="M79.3845 66.0604C80.639 66.0604 81.656 65.0434 81.656 63.7889C81.656 62.5344 80.639 61.5175 79.3845 61.5175C78.13 61.5175 77.113 62.5344 77.113 63.7889C77.113 65.0434 78.13 66.0604 79.3845 66.0604Z" fill="url(#paint9_linear_78_2284)"/>
<path d="M79.3851 61.5174C80.6496 61.5174 81.6566 62.5244 81.6566 63.7889C81.6566 65.0534 80.6496 66.0604 79.3851 66.0604C78.1206 66.0604 77.1136 65.0534 77.1136 63.7889C77.1136 62.5244 78.1206 61.5174 79.3851 61.5174ZM79.3851 61.0491C77.863 61.0491 76.6453 62.2902 76.6453 63.7889C76.6453 65.2876 77.8864 66.5287 79.3851 66.5287C80.9072 66.5287 82.1249 65.2876 82.1249 63.7889C82.1249 62.2902 80.9072 61.0491 79.3851 61.0491Z" fill="#333333"/>
<path opacity="0.3" d="M103.567 66.9217C104.728 66.4445 105.281 65.1172 104.804 63.957C104.327 62.7968 102.999 62.2432 101.839 62.7204C100.679 63.1976 100.125 64.525 100.603 65.6851C101.08 66.8453 102.407 67.399 103.567 66.9217Z" fill="black"/>
<path d="M102.709 66.0604C103.963 66.0604 104.98 65.0434 104.98 63.7889C104.98 62.5344 103.963 61.5175 102.709 61.5175C101.454 61.5175 100.437 62.5344 100.437 63.7889C100.437 65.0434 101.454 66.0604 102.709 66.0604Z" fill="url(#paint10_linear_78_2284)"/>
<path d="M102.709 61.5174C103.973 61.5174 104.98 62.5244 104.98 63.7889C104.98 65.0534 103.973 66.0604 102.709 66.0604C101.444 66.0604 100.437 65.0534 100.437 63.7889C100.437 62.5244 101.444 61.5174 102.709 61.5174ZM102.709 61.0491C101.186 61.0491 99.9688 62.2902 99.9688 63.7889C99.9688 65.2876 101.21 66.5287 102.709 66.5287C104.231 66.5287 105.448 65.2876 105.448 63.7889C105.448 62.2902 104.231 61.0491 102.709 61.0491Z" fill="#333333"/>
<defs>
<linearGradient id="paint0_linear_78_2284" x1="91.0469" y1="63.8547" x2="91.0469" y2="5.11491" gradientUnits="userSpaceOnUse">
<stop stop-color="#63433B"/>
<stop offset="0.2441" stop-color="#67453B"/>
<stop offset="0.4993" stop-color="#744D3D"/>
<stop offset="0.7585" stop-color="#89593F"/>
<stop offset="1" stop-color="#A36841"/>
</linearGradient>
<linearGradient id="paint1_linear_78_2284" x1="91.0467" y1="66.1964" x2="91.0467" y2="2.77289" gradientUnits="userSpaceOnUse">
<stop stop-color="#666666"/>
<stop offset="0.123" stop-color="#6E6E6E"/>
<stop offset="0.3126" stop-color="#838383"/>
<stop offset="0.5452" stop-color="#A7A7A7"/>
<stop offset="0.8091" stop-color="#D7D7D7"/>
<stop offset="1" stop-color="white"/>
</linearGradient>
<linearGradient id="paint2_linear_78_2284" x1="7.45418" y1="3.46046" x2="174.639" y2="3.46046" gradientUnits="userSpaceOnUse">
<stop stop-color="white"/>
<stop offset="0.4344" stop-color="white"/>
<stop offset="0.4978" stop-color="white"/>
<stop offset="0.555" stop-color="white"/>
<stop offset="1" stop-color="white"/>
</linearGradient>
<linearGradient id="paint3_linear_78_2284" x1="9.28264" y1="17.6242" x2="9.28264" y2="0.945028" gradientUnits="userSpaceOnUse">
<stop stop-color="#666666"/>
<stop offset="0.1975" stop-color="#696969"/>
<stop offset="0.3587" stop-color="#737373"/>
<stop offset="0.5071" stop-color="#848484"/>
<stop offset="0.6478" stop-color="#9D9D9D"/>
<stop offset="0.7832" stop-color="#BCBCBC"/>
<stop offset="0.9127" stop-color="#E1E1E1"/>
<stop offset="1" stop-color="white"/>
</linearGradient>
<linearGradient id="paint4_linear_78_2284" x1="5.11276" y1="15.9394" x2="5.11276" y2="11.3923" gradientUnits="userSpaceOnUse">
<stop stop-color="#999999"/>
<stop offset="0.2603" stop-color="#9C9C9C"/>
<stop offset="0.4482" stop-color="#A5A5A5"/>
<stop offset="0.6133" stop-color="#B5B5B5"/>
<stop offset="0.7652" stop-color="#CBCBCB"/>
<stop offset="0.9069" stop-color="#E8E8E8"/>
<stop offset="1" stop-color="white"/>
</linearGradient>
<linearGradient id="paint5_linear_78_2284" x1="13.6337" y1="7.31999" x2="13.6337" y2="2.77288" gradientUnits="userSpaceOnUse">
<stop stop-color="#999999"/>
<stop offset="0.2603" stop-color="#9C9C9C"/>
<stop offset="0.4482" stop-color="#A5A5A5"/>
<stop offset="0.6133" stop-color="#B5B5B5"/>
<stop offset="0.7652" stop-color="#CBCBCB"/>
<stop offset="0.9069" stop-color="#E8E8E8"/>
<stop offset="1" stop-color="white"/>
</linearGradient>
<linearGradient id="paint6_linear_78_2284" x1="172.811" y1="17.6242" x2="172.811" y2="0.945028" gradientUnits="userSpaceOnUse">
<stop stop-color="#666666"/>
<stop offset="0.1975" stop-color="#696969"/>
<stop offset="0.3587" stop-color="#737373"/>
<stop offset="0.5071" stop-color="#848484"/>
<stop offset="0.6478" stop-color="#9D9D9D"/>
<stop offset="0.7832" stop-color="#BCBCBC"/>
<stop offset="0.9127" stop-color="#E1E1E1"/>
<stop offset="1" stop-color="white"/>
</linearGradient>
<linearGradient id="paint7_linear_78_2284" x1="176.981" y1="15.9394" x2="176.981" y2="11.3923" gradientUnits="userSpaceOnUse">
<stop stop-color="#999999"/>
<stop offset="0.2603" stop-color="#9C9C9C"/>
<stop offset="0.4482" stop-color="#A5A5A5"/>
<stop offset="0.6133" stop-color="#B5B5B5"/>
<stop offset="0.7652" stop-color="#CBCBCB"/>
<stop offset="0.9069" stop-color="#E8E8E8"/>
<stop offset="1" stop-color="white"/>
</linearGradient>
<linearGradient id="paint8_linear_78_2284" x1="168.46" y1="7.31999" x2="168.46" y2="2.77288" gradientUnits="userSpaceOnUse">
<stop stop-color="#999999"/>
<stop offset="0.2603" stop-color="#9C9C9C"/>
<stop offset="0.4482" stop-color="#A5A5A5"/>
<stop offset="0.6133" stop-color="#B5B5B5"/>
<stop offset="0.7652" stop-color="#CBCBCB"/>
<stop offset="0.9069" stop-color="#E8E8E8"/>
<stop offset="1" stop-color="white"/>
</linearGradient>
<linearGradient id="paint9_linear_78_2284" x1="79.3833" y1="66.0601" x2="79.3833" y2="61.5129" gradientUnits="userSpaceOnUse">
<stop stop-color="#999999"/>
<stop offset="0.3522" stop-color="#9B9B9B"/>
<stop offset="0.529" stop-color="#A3A3A3"/>
<stop offset="0.6667" stop-color="#B0B0B0"/>
<stop offset="0.7843" stop-color="#C3C3C3"/>
<stop offset="0.8889" stop-color="#DBDBDB"/>
<stop offset="0.9831" stop-color="#F9F9F9"/>
<stop offset="1" stop-color="white"/>
</linearGradient>
<linearGradient id="paint10_linear_78_2284" x1="102.71" y1="66.0601" x2="102.71" y2="61.5129" gradientUnits="userSpaceOnUse">
<stop stop-color="#999999"/>
<stop offset="0.3522" stop-color="#9B9B9B"/>
<stop offset="0.529" stop-color="#A3A3A3"/>
<stop offset="0.6667" stop-color="#B0B0B0"/>
<stop offset="0.7843" stop-color="#C3C3C3"/>
<stop offset="0.8889" stop-color="#DBDBDB"/>
<stop offset="0.9831" stop-color="#F9F9F9"/>
<stop offset="1" stop-color="white"/>
</linearGradient>
</defs>
</svg>
