<svg width="13" height="14" viewBox="0 0 13 14" fill="none" xmlns="http://www.w3.org/2000/svg">
<path d="M9.5 2H3.5C3.10218 2 2.72064 2.16209 2.43934 2.4506C2.15804 2.73912 2 3.13044 2 3.53846V8.15385C2 8.56187 2.15804 8.95319 2.43934 9.2417C2.72064 9.53022 3.10218 9.69231 3.5 9.69231H9.5C9.89782 9.69231 10.2794 9.53022 10.5607 9.2417C10.842 8.95319 11 8.56187 11 8.15385V3.53846C11 3.13044 10.842 2.73912 10.5607 2.4506C10.2794 2.16209 9.89782 2 9.5 2Z" fill="white"/>
<path d="M8 10.4615H5C4.80109 10.4615 4.61032 10.5426 4.46967 10.6868C4.32902 10.8311 4.25 11.0268 4.25 11.2308C4.25 11.4348 4.32902 11.6304 4.46967 11.7747C4.61032 11.919 4.80109 12 5 12H8C8.19891 12 8.38968 11.919 8.53033 11.7747C8.67098 11.6304 8.75 11.4348 8.75 11.2308C8.75 11.0268 8.67098 10.8311 8.53033 10.6868C8.38968 10.5426 8.19891 10.4615 8 10.4615Z" fill="white"/>
</svg>
