<svg width="11" height="11" viewBox="0 0 11 11" fill="none" xmlns="http://www.w3.org/2000/svg">
<path fill-rule="evenodd" clip-rule="evenodd" d="M7.6744 0.741214C7.20042 1.01682 6.7241 1.41186 6.24641 1.8847L8.4834 4.11908C8.91295 3.76646 9.23487 3.4066 9.47635 3.04127C10.1611 2.00491 10.0926 1.4576 10.0431 0.310599C9.07577 0.310599 8.55737 0.227721 7.6744 0.741214ZM0.781828 7.37204L0.805898 7.39609L1.43271 6.77001L1.34602 6.68322C1.18163 6.51922 1.18144 6.25045 1.34602 6.08607L4.95561 2.48068C5.11999 2.31629 5.38907 2.31629 5.55346 2.48068L7.90649 4.83078C8.07087 4.99497 8.07068 5.26374 7.90649 5.42793L4.2967 9.03352C4.13232 9.19771 3.86324 9.19771 3.69886 9.03352L3.61197 8.94673L2.98535 9.57281L3.00942 9.59705C3.17107 9.7585 3.17107 10.023 3.00942 10.1844C2.84758 10.3461 2.58281 10.3461 2.42116 10.1844L0.193569 7.95962C0.0317294 7.79797 0.0317294 7.5335 0.193569 7.37204C0.355409 7.21039 0.619988 7.21039 0.781828 7.37204Z" fill="black"/>
</svg>
