<svg width="14" height="12" viewBox="0 0 14 12" fill="none" xmlns="http://www.w3.org/2000/svg">
<path d="M13.5929 0.777231C13.8348 1.03907 13.9759 1.40017 13.9853 1.78116C13.9948 2.16215 13.8717 2.53182 13.6431 2.8089L6.53016 11.4339C6.41488 11.5734 6.27635 11.6851 6.12275 11.7623C5.96915 11.8395 5.8036 11.8806 5.63588 11.8833C5.46816 11.886 5.30167 11.8501 5.14625 11.7779C4.99083 11.7056 4.84964 11.5984 4.731 11.4626L0.965308 7.15015C0.743584 6.87765 0.622876 6.51722 0.628614 6.14481C0.634351 5.7724 0.766087 5.41708 0.996067 5.15371C1.22605 4.89033 1.53631 4.73947 1.8615 4.7329C2.1867 4.72633 2.50142 4.86456 2.73937 5.11848L5.59293 8.38448L11.8189 0.834731C12.0475 0.557768 12.3628 0.396124 12.6955 0.385342C13.0282 0.374559 13.351 0.51552 13.5929 0.777231Z" fill="white"/>
</svg>
