<svg width="17" height="18" viewBox="0 0 17 18" fill="none" xmlns="http://www.w3.org/2000/svg">
<path d="M10.4593 8.79236L16.2198 3.03185C16.4932 2.75894 16.6469 2.3886 16.6473 2.00231C16.6476 1.61602 16.4945 1.24541 16.2216 0.972015C15.9487 0.698622 15.5783 0.544841 15.192 0.544499C14.8058 0.544158 14.4351 0.697286 14.1618 0.970196L8.40125 6.7307L2.64074 0.970196C2.36735 0.696803 1.99655 0.543213 1.60991 0.543213C1.22327 0.543213 0.852475 0.696803 0.579083 0.970196C0.30569 1.24359 0.1521 1.61439 0.1521 2.00102C0.1521 2.38766 0.30569 2.75846 0.579083 3.03185L6.33959 8.79236L0.579083 14.5529C0.30569 14.8263 0.1521 15.1971 0.1521 15.5837C0.1521 15.9703 0.30569 16.3411 0.579083 16.6145C0.852475 16.8879 1.22327 17.0415 1.60991 17.0415C1.99655 17.0415 2.36735 16.8879 2.64074 16.6145L8.40125 10.854L14.1618 16.6145C14.4351 16.8879 14.8059 17.0415 15.1926 17.0415C15.5792 17.0415 15.95 16.8879 16.2234 16.6145C16.4968 16.3411 16.6504 15.9703 16.6504 15.5837C16.6504 15.1971 16.4968 14.8263 16.2234 14.5529L10.4593 8.79236Z" fill="white"/>
</svg>
