<svg width="15" height="13" viewBox="0 0 15 13" fill="none" xmlns="http://www.w3.org/2000/svg">
<path d="M8.02865 2.84741C8.31563 2.66584 8.50694 2.33643 8.50694 1.96551C8.50694 1.39227 8.05634 0.927979 7.5 0.927979C6.94366 0.927979 6.49306 1.39227 6.49306 1.96551C6.49306 2.33902 6.68438 2.66584 6.97135 2.84741L5.52891 5.81993C5.29983 6.29201 4.70573 6.42689 4.30547 6.09747L2.0625 4.24807C2.18837 4.07429 2.26389 3.859 2.26389 3.62556C2.26389 3.05232 1.81328 2.58803 1.25694 2.58803C0.700608 2.58803 0.25 3.05232 0.25 3.62556C0.25 4.19879 0.700608 4.66309 1.25694 4.66309H1.27457L2.425 11.184C2.56345 11.9725 3.23056 12.5483 4.01094 12.5483H10.9891C11.7669 12.5483 12.434 11.9751 12.575 11.184L13.7254 4.66309H13.7431C14.2994 4.66309 14.75 4.19879 14.75 3.62556C14.75 3.05232 14.2994 2.58803 13.7431 2.58803C13.1867 2.58803 12.7361 3.05232 12.7361 3.62556C12.7361 3.859 12.8116 4.07429 12.9375 4.24807L10.6945 6.09747C10.2943 6.42689 9.70017 6.29201 9.47109 5.81993L8.02865 2.84741Z" fill="white"/>
</svg>
