<svg width="12" height="11" viewBox="0 0 12 11" xmlns="http://www.w3.org/2000/svg">
<path d="M12 3.26669V3.30539C12 3.76129 12 3.98977 11.8758 4.17637C11.7516 4.36297 11.5254 4.47376 11.0742 4.69588L10.5984 4.92913C10.926 3.94948 11.0358 2.89667 11.076 1.99654L11.082 1.87938L11.0832 1.85181C11.4738 1.97162 11.6934 2.06121 11.8302 2.22873C12 2.43706 12 2.71378 12 3.26669ZM0 3.26669V3.30539C0 3.76129 1.43051e-08 3.98977 0.1242 4.17637C0.2484 4.36297 0.4746 4.47376 0.9258 4.69588L1.4022 4.92913C1.074 3.94948 0.9642 2.89667 0.924 1.99654L0.918 1.87938L0.9174 1.85181C0.5262 1.97162 0.3066 2.06121 0.1698 2.22873C0 2.43706 0 2.71431 0 3.26669Z" fill="white"/>
<path fill-rule="evenodd" clip-rule="evenodd" d="M8.6262 0.184075C7.75811 0.0583694 6.87967 -0.00316024 6 0.00012489C4.9302 0.00012489 4.0482 0.0833528 3.3738 0.184075C2.6904 0.285857 2.349 0.336748 2.0634 0.647395C1.7784 0.958042 1.7934 1.2936 1.8234 1.96473C1.9272 4.26967 2.49 7.14925 5.55 7.4037V9.27713H4.692C4.55334 9.2772 4.419 9.3197 4.3118 9.3974C4.20461 9.47511 4.13118 9.58321 4.104 9.70334L3.99 10.2048H2.4C2.28065 10.2048 2.16619 10.2467 2.0818 10.3213C1.99741 10.3958 1.95 10.497 1.95 10.6024C1.95 10.7079 1.99741 10.809 2.0818 10.8836C2.16619 10.9581 2.28065 11 2.4 11H9.6C9.71935 11 9.83381 10.9581 9.9182 10.8836C10.0026 10.809 10.05 10.7079 10.05 10.6024C10.05 10.497 10.0026 10.3958 9.9182 10.3213C9.83381 10.2467 9.71935 10.2048 9.6 10.2048H8.01L7.896 9.70334C7.86882 9.58321 7.79539 9.47511 7.6882 9.3974C7.581 9.3197 7.44666 9.2772 7.308 9.27713H6.45V7.4037C9.51 7.14925 10.0734 4.2702 10.1766 1.96473C10.2066 1.2936 10.2222 0.957512 9.9366 0.647395C9.651 0.336748 9.3096 0.285857 8.6262 0.184075Z"/>
</svg>
