<svg width="21" height="16" viewBox="0 0 21 16" fill="none" xmlns="http://www.w3.org/2000/svg">
<path d="M19.3952 0.821672L1.39518 0.821671C1.21294 0.822242 1.0343 0.872505 0.878503 0.967049C0.722703 1.06159 0.595638 1.19684 0.510984 1.35822C0.42633 1.51961 0.387293 1.70103 0.398076 1.88295C0.408859 2.06488 0.469053 2.24041 0.572179 2.39067L9.57218 15.3907C9.94518 15.9297 10.8432 15.9297 11.2172 15.3907L20.2172 2.39067C20.3214 2.24073 20.3824 2.0651 20.3938 1.88288C20.4052 1.70065 20.3664 1.51879 20.2817 1.35707C20.1969 1.19534 20.0695 1.05992 19.9132 0.965528C19.7569 0.871138 19.5778 0.821385 19.3952 0.821672Z" fill="white"/>
</svg>
