<svg width="15" height="16" viewBox="0 0 15 16" fill="none" xmlns="http://www.w3.org/2000/svg">
<path fill-rule="evenodd" clip-rule="evenodd" d="M7.5 1.86364C4.11098 1.86364 1.36364 4.61098 1.36364 8C1.36364 11.389 4.11098 14.1364 7.5 14.1364C10.889 14.1364 13.6364 11.389 13.6364 8C13.6364 4.61098 10.889 1.86364 7.5 1.86364ZM0 8C0 3.85786 3.35786 0.5 7.5 0.5C11.6421 0.5 15 3.85786 15 8C15 12.1421 11.6421 15.5 7.5 15.5C3.35786 15.5 0 12.1421 0 8ZM7.5 4.59091C7.87656 4.59091 8.18182 4.89617 8.18182 5.27273V8C8.18182 8.37656 7.87656 8.68182 7.5 8.68182C7.12344 8.68182 6.81818 8.37656 6.81818 8V5.27273C6.81818 4.89617 7.12344 4.59091 7.5 4.59091ZM6.81818 10.7273C6.81818 10.3507 7.12344 10.0455 7.5 10.0455H7.50682C7.88338 10.0455 8.18864 10.3507 8.18864 10.7273C8.18864 11.1038 7.88338 11.4091 7.50682 11.4091H7.5C7.12344 11.4091 6.81818 11.1038 6.81818 10.7273Z" fill="#EA0000"/>
</svg>
