<svg width="14" height="15" viewBox="0 0 14 15" fill="none" xmlns="http://www.w3.org/2000/svg">
<path fill-rule="evenodd" clip-rule="evenodd" d="M2.38867 4.93726C2.38867 3.81009 2.83644 2.72908 3.63347 1.93205C4.4305 1.13502 5.5115 0.687256 6.63867 0.687256C7.76584 0.687256 8.84685 1.13502 9.64388 1.93205C10.4409 2.72908 10.8887 3.81009 10.8887 4.93726H11.597C11.9727 4.93726 12.3331 5.08651 12.5987 5.35219C12.8644 5.61786 13.0137 5.9782 13.0137 6.35392V13.4373C13.0137 13.813 12.8644 14.1733 12.5987 14.439C12.3331 14.7047 11.9727 14.8539 11.597 14.8539H1.68034C1.30462 14.8539 0.94428 14.7047 0.678604 14.439C0.412927 14.1733 0.263672 13.813 0.263672 13.4373V6.35392C0.263672 5.9782 0.412927 5.61786 0.678604 5.35219C0.94428 5.08651 1.30462 4.93726 1.68034 4.93726H2.38867ZM6.63867 2.10392C7.39012 2.10392 8.11079 2.40243 8.64214 2.93379C9.17349 3.46514 9.472 4.18581 9.472 4.93726H3.80534C3.80534 4.18581 4.10385 3.46514 4.6352 2.93379C5.16656 2.40243 5.88722 2.10392 6.63867 2.10392ZM8.05534 9.18726C8.05533 9.43593 7.98987 9.68022 7.86553 9.89557C7.74119 10.1109 7.56236 10.2898 7.34701 10.4141V11.3123C7.34701 11.5001 7.27238 11.6803 7.13954 11.8131C7.0067 11.946 6.82653 12.0206 6.63867 12.0206C6.45081 12.0206 6.27064 11.946 6.1378 11.8131C6.00497 11.6803 5.93034 11.5001 5.93034 11.3123V10.4141C5.66028 10.2582 5.44922 10.0175 5.32989 9.72936C5.21056 9.44125 5.18963 9.12181 5.27034 8.82059C5.35105 8.51937 5.5289 8.2532 5.7763 8.06336C6.0237 7.87351 6.32683 7.7706 6.63867 7.77059C7.0144 7.77059 7.37473 7.91985 7.64041 8.18552C7.90608 8.4512 8.05534 8.81153 8.05534 9.18726Z" fill="#403F3F"/>
</svg>
