<svg width="17" height="17" viewBox="0 0 17 17" fill="none" xmlns="http://www.w3.org/2000/svg">
<g clip-path="url(#clip0_482_1417)">
<path d="M13.1985 6.50039L9.91675 7.59335V12.3959C9.91654 13.1064 9.67891 13.7965 9.2416 14.3566C8.80429 14.9167 8.19238 15.3145 7.50307 15.487C6.81376 15.6595 6.08658 15.5968 5.43702 15.3087C4.78747 15.0206 4.25279 14.5238 3.91792 13.8971C3.58305 13.2704 3.46718 12.5497 3.58874 11.8496C3.71029 11.1495 4.06228 10.5101 4.5888 10.033C5.11533 9.55583 5.78619 9.26829 6.49483 9.21603C7.20348 9.16378 7.90926 9.3498 8.50009 9.74456V4.5631C8.50008 4.11713 8.64038 3.68247 8.90111 3.32066C9.16185 2.95886 9.52981 2.68826 9.95288 2.54718L12.7685 1.60864C12.9282 1.55545 13.0983 1.54097 13.2647 1.56638C13.431 1.59179 13.589 1.65637 13.7256 1.7548C13.8621 1.85323 13.9733 1.9827 14.05 2.13253C14.1267 2.28236 14.1667 2.44828 14.1668 2.6166V5.15598C14.1669 5.45334 14.0734 5.7432 13.8996 5.98449C13.7258 6.22579 13.4805 6.40628 13.1985 6.50039Z" fill="white"/>
</g>
<defs>
<clipPath id="clip0_482_1417">
<rect width="17" height="17" fill="white"/>
</clipPath>
</defs>
</svg>
