<svg width="22" height="24" viewBox="0 0 22 24" fill="none" xmlns="http://www.w3.org/2000/svg">
<path d="M13.6863 19.6491C13.6863 20.3348 13.4139 20.9925 12.929 21.4773C12.4441 21.9622 11.7865 22.2346 11.1007 22.2346C10.415 22.2346 9.75733 21.9622 9.27244 21.4773C8.78755 20.9925 8.51514 20.3348 8.51514 19.6491C8.51514 18.9633 8.78755 18.3057 9.27244 17.8208C9.75733 17.3359 10.415 17.0635 11.1007 17.0635C11.7865 17.0635 12.4441 17.3359 12.929 17.8208C13.4139 18.3057 13.6863 18.9633 13.6863 19.6491Z" fill="white"/>
<path fill-rule="evenodd" clip-rule="evenodd" d="M11.0632 4.84919C10.197 4.84919 9.45368 5.10775 8.9301 5.47749C8.42591 5.8343 8.1764 6.24929 8.104 6.60739C7.99703 7.08606 7.7067 7.50374 7.29531 7.77082C6.88393 8.0379 6.38424 8.1331 5.90347 8.036C5.4227 7.9389 4.99913 7.65723 4.72364 7.25142C4.44816 6.84561 4.3427 6.348 4.42989 5.86533C4.72335 4.40964 5.62572 3.22157 6.76855 2.41357C7.95792 1.57326 9.46531 1.1001 11.0632 1.1001C14.3689 1.1001 17.7961 3.31077 17.7961 6.86078C17.7961 8.91632 16.5744 10.5788 14.992 11.5484C14.5679 11.808 14.058 11.8884 13.5746 11.7721C13.0911 11.6557 12.6737 11.352 12.4142 10.9279C12.1546 10.5038 12.0742 9.9939 12.1906 9.51047C12.3069 9.02703 12.6106 8.60963 13.0347 8.35007C13.7716 7.89889 14.047 7.3236 14.047 6.86078C14.047 6.11872 13.1226 4.84919 11.0632 4.84919Z" fill="white"/>
<path fill-rule="evenodd" clip-rule="evenodd" d="M11.0631 9.84619C12.0974 9.84619 12.9377 10.6839 12.9377 11.7207V13.6625C12.9377 14.1597 12.7402 14.6365 12.3887 14.988C12.0371 15.3396 11.5603 15.5371 11.0631 15.5371C10.566 15.5371 10.0892 15.3396 9.73764 14.988C9.38609 14.6365 9.1886 14.1597 9.1886 13.6625V11.7207C9.1886 10.6865 10.0276 9.84619 11.0631 9.84619Z" fill="white"/>
<path fill-rule="evenodd" clip-rule="evenodd" d="M15.6254 8.98729C15.7521 9.19861 15.8358 9.43283 15.8718 9.67653C15.9079 9.92024 15.8955 10.1687 15.8355 10.4076C15.7755 10.6465 15.6689 10.8713 15.522 11.069C15.375 11.2667 15.1905 11.4336 14.979 11.5599L12.0263 13.3272C11.5998 13.5826 11.0892 13.6582 10.607 13.5372C10.1248 13.4162 9.71038 13.1086 9.45495 12.6821C9.19951 12.2556 9.12397 11.745 9.24495 11.2628C9.36593 10.7806 9.67352 10.3662 10.1 10.1107L13.0541 8.34218C13.2654 8.21576 13.4995 8.13219 13.743 8.09625C13.9866 8.06031 14.2349 8.07271 14.4737 8.13273C14.7124 8.19276 14.9371 8.29924 15.1347 8.44608C15.3323 8.59293 15.4991 8.77598 15.6254 8.98729Z" fill="white"/>
</svg>
