<svg width="30" height="30" viewBox="0 0 30 30" xmlns="http://www.w3.org/2000/svg">
<path fill-rule="evenodd" clip-rule="evenodd" d="M19.5398 19.5398C20.4076 18.6719 21.8146 18.6719 22.6825 19.5398L29.3491 26.2064C30.217 27.0743 30.217 28.4813 29.3491 29.3491C28.4813 30.217 27.0743 30.217 26.2064 29.3491L19.5398 22.6825C18.6719 21.8146 18.6719 20.4076 19.5398 19.5398Z"/>
<path fill-rule="evenodd" clip-rule="evenodd" d="M12.7778 4.44444C8.17541 4.44444 4.44444 8.17541 4.44444 12.7778C4.44444 17.3802 8.17541 21.1111 12.7778 21.1111C17.3802 21.1111 21.1111 17.3802 21.1111 12.7778C21.1111 8.17541 17.3802 4.44444 12.7778 4.44444ZM0 12.7778C0 5.72081 5.72081 0 12.7778 0C19.8348 0 25.5556 5.72081 25.5556 12.7778C25.5556 19.8348 19.8348 25.5556 12.7778 25.5556C5.72081 25.5556 0 19.8348 0 12.7778Z"/>
</svg>
