<svg width="29" height="30" viewBox="0 0 29 30" xmlns="http://www.w3.org/2000/svg">
<path d="M17.8954 0.388747C16.7858 0.143095 15.6533 0.0128084 14.5164 0C13.3514 0.0124999 12.2179 0.143749 11.1071 0.388747C10.8702 0.441277 10.6559 0.56592 10.494 0.745229C10.3321 0.924539 10.2309 1.14954 10.2044 1.38874L9.94085 3.73497C9.90308 4.0659 9.78769 4.38347 9.60393 4.66227C9.42016 4.94106 9.17312 5.17334 8.88257 5.34051C8.59202 5.50768 8.26604 5.6051 7.93071 5.62497C7.59537 5.64485 7.26 5.58662 6.95144 5.45496L4.78282 4.50872C4.5627 4.41264 4.3179 4.38678 4.0823 4.4347C3.8467 4.48263 3.63195 4.60197 3.46778 4.77621C1.89938 6.44003 0.731616 8.43453 0.0521988 10.6099C-0.0193806 10.8389 -0.0172963 11.0844 0.0581625 11.3122C0.133621 11.5399 0.278714 11.7388 0.473315 11.8812L2.3986 13.2874C2.6694 13.485 2.88956 13.7429 3.04129 14.0404C3.19302 14.3379 3.27207 14.6665 3.27207 14.9999C3.27207 15.3332 3.19302 15.6619 3.04129 15.9594C2.88956 16.2569 2.6694 16.5148 2.3986 16.7124L0.473315 18.1224C0.278964 18.2646 0.134034 18.4633 0.0585863 18.6908C-0.0168612 18.9183 -0.0190935 19.1635 0.0521988 19.3924C0.730212 21.5697 1.89712 23.5663 3.46525 25.2323C3.62928 25.4068 3.84396 25.5263 4.07957 25.5745C4.31517 25.6226 4.56005 25.597 4.78029 25.5011L6.959 24.5523C7.26577 24.4195 7.59973 24.36 7.93394 24.3787C8.26815 24.3974 8.59325 24.4937 8.88302 24.6598C9.47057 24.9973 9.86268 25.5911 9.93959 26.2611L10.2018 28.6073C10.2282 28.8433 10.3273 29.0654 10.4857 29.2435C10.6441 29.4216 10.8541 29.5469 11.0869 29.6023C13.3305 30.1326 15.6683 30.1326 17.9118 29.6023C18.1447 29.5469 18.3546 29.4216 18.513 29.2435C18.6714 29.0654 18.7706 28.8433 18.7969 28.6073L19.0591 26.2573C19.0947 25.9262 19.2086 25.608 19.3916 25.3288C19.5745 25.0495 19.8214 24.817 20.1121 24.6501C20.4028 24.4832 20.7291 24.3867 21.0645 24.3684C21.3999 24.3501 21.7349 24.4106 22.0423 24.5448L24.2197 25.4936C24.4399 25.5895 24.6848 25.6151 24.9204 25.567C25.156 25.5188 25.3707 25.3993 25.5347 25.2248C27.102 23.5606 28.2689 21.5662 28.9478 19.3911C29.0194 19.1621 29.0173 18.9167 28.9418 18.6889C28.8664 18.4611 28.7213 18.2622 28.5267 18.1199L26.6039 16.7124C26.333 16.5149 26.1128 16.257 25.961 15.9596C25.8091 15.6622 25.7299 15.3335 25.7298 15.0002C25.7297 14.6669 25.8086 14.3382 25.9603 14.0406C26.1119 13.7431 26.3319 13.4851 26.6027 13.2874L28.5254 11.8787C28.7196 11.7362 28.8642 11.5375 28.9394 11.31C29.0147 11.0825 29.0167 10.8374 28.9453 10.6087C28.2663 8.43336 27.099 6.43885 25.531 4.77496C25.3668 4.60072 25.152 4.48138 24.9164 4.43345C24.6808 4.38553 24.436 4.41139 24.2159 4.50747L22.0473 5.45371C21.7775 5.5728 21.4853 5.63414 21.1899 5.63371C20.6618 5.63274 20.1525 5.43859 19.7598 5.08845C19.3671 4.73831 19.1185 4.25682 19.0617 3.73622L18.7969 1.38749C18.7705 1.14878 18.6695 0.924214 18.5081 0.745155C18.3468 0.566096 18.1317 0.441491 17.8954 0.388747ZM14.5 19.9998C13.1624 19.9998 11.8796 19.4731 10.9338 18.5354C9.98804 17.5977 9.4567 16.326 9.4567 14.9999C9.4567 13.6738 9.98804 12.4021 10.9338 11.4644C11.8796 10.5267 13.1624 9.99992 14.5 9.99992C15.8376 9.99992 17.1203 10.5267 18.0662 11.4644C19.012 12.4021 19.5433 13.6738 19.5433 14.9999C19.5433 16.326 19.012 17.5977 18.0662 18.5354C17.1203 19.4731 15.8376 19.9998 14.5 19.9998Z"/>
</svg>
